:SAMPLES-PER-SECOND 30
:FULLY-SPECIFIED
:DEGREES
1
root  78.6605 39.4282 -0.242583 -149.157 -87.2388 146.992
RightUpLeg  -1.84685 -6.55027 -3.5236
RightLeg  6.52507 13.2267 -0.378187
RightFoot  -2.87006 0.015242 -0.480497
RightToes  -9.31324e-010 0 -3.6325e-017
Spine  -2.52953 1.32483 4.68227
Spine1  9.31318 2.37467 -4.29175
HEad  -9.30764 -5.10625 -1.82452
LeftShoulder1  -0.347652 4.38666 -32.9259
LeftArm  13.7852 4.98536 -41.7013
LeftForeArm  25.9719 -17.085 -7.06297
LeftHand  -0.161722 8.83541 -3.46396
RightShoulder  -0.937584 -5.9679 31.6468
RightArm  22.9378 2.21687 47.2895
RightForeArm  15.4239 11.2601 8.57738
RightHand  -0.0854179 5.0643 -1.35641
LeftUpLeg  1.5666 6.25445 1.73126
LeftLeg  4.29289 1.62876 0.196149
LeftFoot  -3.77977 0.0222432 0.0545883
LeftToes  8.61288e-010 -5.99147e-011 2.1039e-011
2
root  78.6654 39.4282 -0.242583 -148.938 -87.2375 146.729
RightUpLeg  -1.83325 -6.55955 -3.53379
RightLeg  6.58063 13.2294 -0.376073
RightFoot  -2.89087 0.016377 -0.498126
RightToes  -9.31324e-010 0 -3.6325e-017
Spine  -2.44214 1.31166 4.67094
Spine1  9.23536 2.36012 -4.27415
HEad  -9.41254 -5.07698 -1.67405
LeftShoulder1  -0.347222 4.39458 -32.9
LeftArm  13.9268 4.99864 -41.6571
LeftForeArm  25.6959 -17.0964 -7.07344
LeftHand  -0.168265 9.04822 -3.59126
RightShoulder  -0.937626 -5.96076 31.6244
RightArm  22.8868 2.19915 47.3068
RightForeArm  15.5575 11.2421 8.56953
RightHand  -0.0821115 4.85054 -1.35517
LeftUpLeg  1.62287 6.26224 1.73657
LeftLeg  4.25918 1.59169 0.178124
LeftFoot  -3.75675 0.0192148 0.101652
LeftToes  8.61288e-010 -5.99147e-011 2.1039e-011
3
root  78.6693 39.4282 -0.241843 -148.583 -87.1823 146.342
RightUpLeg  -1.82629 -6.55724 -3.58041
RightLeg  6.59961 13.2612 -0.387484
RightFoot  -2.91789 0.0107723 -0.411073
RightToes  -9.31324e-010 0 -3.6325e-017
Spine  -2.28325 1.33878 4.65395
Spine1  9.02283 2.39074 -4.30299
HEad  -9.45205 -5.52958 -1.80056
LeftShoulder1  -0.33977 4.37365 -32.9237
LeftArm  14.1723 5.0794 -41.5951
LeftForeArm  25.5452 -17.1859 -7.03223
LeftHand  -0.156506 8.86961 -3.37006
RightShoulder  -0.937575 -5.96591 31.6512
RightArm  23.0659 2.09427 47.1954
RightForeArm  15.5318 11.3748 8.53617
RightHand  -0.0806236 4.74645 -1.30655
LeftUpLeg  1.66953 6.23709 1.67532
LeftLeg  4.249 1.66688 0.194289
LeftFoot  -3.74375 0.0208709 0.0759151
LeftToes  8.61288e-010 -5.99147e-011 2.1039e-011
4
root  78.6809 39.4282 -0.243097 -147.87 -87.2081 145.615
RightUpLeg  -1.80876 -6.61804 -3.62093
RightLeg  6.56381 13.2961 -0.350464
RightFoot  -2.8693 0.011081 -0.415868
RightToes  -9.31324e-010 0 -3.6325e-017
Spine  -2.25466 1.33147 4.60468
Spine1  9.02006 2.37634 -4.25892
HEad  -9.24743 -5.64738 -2.01578
LeftShoulder1  -0.324504 4.33581 -32.8678
LeftArm  14.1843 5.07367 -41.6604
LeftForeArm  25.8048 -17.2254 -6.99526
LeftHand  -0.0806138 7.01726 -2.78725
RightShoulder  -0.937306 -5.95151 31.6743
RightArm  23.1084 2.10399 47.1635
RightForeArm  15.6322 11.4381 8.5058
RightHand  -0.0787864 4.61315 -1.22634
LeftUpLeg  1.63268 6.22466 1.65727
LeftLeg  4.31241 1.66866 0.196595
LeftFoot  -3.75979 0.021318 0.068966
LeftToes  8.61288e-010 -5.99147e-011 2.1039e-011
5
root  78.6879 39.4282 -0.250208 -149.256 -87.0859 147.049
RightUpLeg  -1.946 -6.53219 -3.5628
RightLeg  6.67588 13.3362 -0.376222
RightFoot  -2.91858 0.00814432 -0.370258
RightToes  -9.31324e-010 0 -3.6325e-017
Spine  -2.36982 1.40116 4.66079
Spine1  9.12622 2.4601 -4.30289
HEad  -9.44474 -5.54107 -1.8071
LeftShoulder1  -0.333762 4.35965 -32.8618
LeftArm  14.1287 4.96446 -41.6721
LeftForeArm  25.8862 -17.1925 -7.01216
LeftHand  -0.0913847 7.19503 -3.08078
RightShoulder  -0.931967 -5.93891 31.6601
RightArm  23.0367 2.14545 47.2166
RightForeArm  15.6647 11.4122 8.5045
RightHand  -0.0788033 4.61395 -1.22196
LeftUpLeg  1.61561 6.25276 1.68388
LeftLeg  4.23309 1.76155 0.167488
LeftFoot  -3.7579 0.0189962 0.105049
LeftToes  8.61288e-010 -5.99147e-011 2.1039e-011
